<svg xmlns="http://www.w3.org/2000/svg" width="1806" height="753"><g fill="none" fill-rule="evenodd"><path fill="#FFF" d="M0 0h1806v13084H0z"/><path fill="#F5F7FA" d="M-267.761 556.21C60.409 751.576 9.08 826.178 964.899 661.451c637.214-109.818 1128.669-51.393 1474.366 175.273L2081.632-98.5l-2284.52-273.025-259.686 387.83c-88.906 229.69-23.968 409.659 194.813 539.904Z"/><path fill="#D1D6DE" d="M2058.784 29a29.392 29.392 0 0 1-14.851-4.017l-119.43-69.651-119.438 69.65c-13.864 8.087-31.766 3.58-39.985-10.069-8.215-13.649-3.634-31.268 10.231-39.35l122.252-71.296c16.626-9.692 37.272-9.686 53.879 0l122.245 71.296c13.868 8.086 18.45 25.704 10.23 39.35C2078.47 23.967 2068.755 29 2058.784 29" opacity=".257"/></g></svg>