<svg xmlns="http://www.w3.org/2000/svg" viewBox="0 0 551.59 225.07"><g data-name="Capa 2"><path d="M0 .79h59.25v90H0z" style="fill:#d12801"/><path d="M69.59 1.4h34.65a38.81 38.81 0 0 1 17 3.47 27.61 27.61 0 0 1 11.33 9.79 42.36 42.36 0 0 1 4.8 13 86.88 86.88 0 0 1 1.68 18.07 86.4 86.4 0 0 1-1.71 18 48.61 48.61 0 0 1-4.52 13.11 27.64 27.64 0 0 1-11.21 9.86 37.87 37.87 0 0 1-16.84 3.47H69.59v-6.26h6.17V7.67h-6.17ZM91.1 84h9.9q7.69 0 11-2.19 11.91-7.55 11.92-36.45 0-27.93-11.43-35.11a14.21 14.21 0 0 0-5.07-2 37.15 37.15 0 0 0-7.09-.6H91.1ZM141.76 1.4H172v6.27h-7v76.24h7v6.27h-30.24v-6.27h7.83V7.67h-7.83ZM241.37 76.85q-10.32 15.33-29.21 14.85-21.16-.18-29.45-14.18v.06Q176 67.05 176 46.3q0-21.6 7.09-32.12v.06Q191 .18 213.08 0a37.81 37.81 0 0 1 24.63 8.46l1.95 15.64h-7.27a18.24 18.24 0 0 0-4.95-12.72q-4.89-5.12-14.3-5.17-10.51-.12-15.92 10t-5.83 29.87q.42 19.41 5.62 29.48t15.21 10a21.53 21.53 0 0 0 8-1.67 17.83 17.83 0 0 0 6.08-4.29V56.41h-8.68V50h29.09v6.32h-5.38ZM248.24 1.4h30.19v6.27h-7v76.24h7v6.27h-30.19v-6.27h7.82V7.67h-7.82ZM347.23 1.4l2.32 16.12H343q-1.47-9.85-6.9-9.85h-13.32v76.24h6.05v6.27h-27.74v-6.27h6.36V7.67h-13.26q-5.44 0-6.91 9.85h-6.6L283 1.4ZM342.75 90.18V84h6.54q6.48-20.62 13-41.32T375.2 1.4h6.8L408.63 84H415v6.21h-26.48V84H393l-1.89-5.9q-.91-2.86-1.83-5.69l-1.84-5.72q-.92-2.89-1.89-5.93H364c-.65 2-1.28 4-1.87 5.9s-1.18 3.8-1.77 5.69-1.18 3.78-1.77 5.69-1.21 3.89-1.86 6h4.64v6.21Zm40.88-35.78q-2.31-6.94-4.52-13.69T374.65 27q-2.26 7.05-4.34 13.63L366 54.4ZM442.1 83.91h29.21q5.44 0 6.91-9.92h6.6l-2.32 16.19h-61.91v-6.27h6.05V7.67h-6.17V1.4H448v6.27h-5.9ZM82.12 117.79h-6.6v-6.27H104v6.27h-6.48v74.6q-.12 14.48-5.44 22.76-5.51 8.52-19.25 9.92l-2.69-5.85q12-.42 12-27.07ZM142.74 110.06q34.47 0 34.47 45.82t-34.41 45.88q-34.4 0-34.4-45.88t34.34-45.82Zm0 6.33q-18.94 0-18.94 39.49t19 39.55q18.94 0 18.95-39.49t-19.01-39.55ZM232.26 111.52h20v6.27H246v45.88q0 37.79-29 37.79-17.22 0-24.62-11.14-6-9.18-6-26.83v-45.7h-6.3v-6.27h27.69v6.27h-6V164q0 15.35 2.38 21.24 3.72 9.85 15.83 9.86 18.33 0 18.33-31.64v-45.67h-6.05ZM280.44 194H287v6.27h-28.19V194l6.17.06v-76.3h-6.17v-6.27h37.4a36.75 36.75 0 0 1 10.7 1.5 30.94 30.94 0 0 1 8.92 4.28 23.26 23.26 0 0 1 6.69 7.82 21.66 21.66 0 0 1 2.35 10.13 20.48 20.48 0 0 1-1.62 8 25.17 25.17 0 0 1-4.61 7.12 30.74 30.74 0 0 1-6 4.8 25.68 25.68 0 0 1-7 3 69 69 0 0 0 7.89 17A156.2 156.2 0 0 0 327.62 194h6.6v6.27h-19.8a191.69 191.69 0 0 1-13.38-20 182.29 182.29 0 0 1-10.45-21h-10.15Zm0-41.19h15.41a9.16 9.16 0 0 0 5-1.55 17.9 17.9 0 0 0 4.55-4.47 28.26 28.26 0 0 0 2.9-5.72 16.84 16.84 0 0 0 1.07-5.78 19.59 19.59 0 0 0-4-12.23 13.23 13.23 0 0 0-10.88-5.36l-14 .06ZM401.86 117.79v82.51h-8.37L353 130.14V194h6v6.27h-19.28V194h6.17v-76.21h-6.17v-6.27h19.73l35.26 60.36v-54.09h-6v-6.27H408v6.27ZM411.52 200.3v-6.21h6.54q6.48-20.62 13-41.31t13-41.26h6.78l26.65 82.57h6.41v6.21h-26.61v-6.21h4.52l-1.89-5.9-1.83-5.69c-.61-1.88-1.23-3.79-1.84-5.72l-1.89-5.93h-21.63q-1 3-1.87 5.9t-1.77 5.69l-1.77 5.69q-.88 2.87-1.87 6h4.65v6.21Zm40.88-35.78q-2.31-6.93-4.52-13.69t-4.46-13.69q-2.26 7.06-4.34 13.63l-4.34 13.75ZM508.87 194h29.21q5.45 0 6.91-9.91h6.6l-2.33 16.18h-61.9V194h6.05v-76.21h-6.17v-6.27h27.56v6.27h-5.93Z"/></g></svg>