<svg xmlns="http://www.w3.org/2000/svg" xml:space="preserve" viewBox="11.34 78.4 234.33 100.86"><path d="M546.938 962.645c0 202.175 161.285 365.735 361.187 365.735 199.145 0 359.675-163.56 359.675-365.735 0-202.176-160.53-365.731-359.675-365.731-199.902 0-361.187 162.801-361.187 365.731zM85.039 585.555v756.455h453.57l13.629-207.48H298.574v-99.19h207.473V830.891H298.574V585.555Zm1757.481 2.269-227.16 390.723 207.47 360.433H1593.4l-92.38-160.53-93.89 160.53h-233.98l209.74-362.707-223.37-388.449h229.43l108.28 187.793 109.8-187.793zM970.219 812.719v299.851c0 35.59-26.504 65.88-62.094 65.88-32.559 0-60.578-30.29-60.578-65.88V812.719c0-33.321 28.019-61.332 60.578-61.332 35.59 0 62.094 24.23 62.094 61.332" style="fill:#2e3192;fill-opacity:1;fill-rule:evenodd;stroke:none" transform="matrix(.13333 0 0 -.13333 0 257.333)"/></svg>