<svg xmlns="http://www.w3.org/2000/svg" xml:space="preserve" id="Layer_1" x="0" y="0" style="enable-background:new 0 0 3000 3000" version="1.1" viewBox="64.49 996.1 2813.81 1020.2"><style>.st1,.st2,.st4{opacity:.2;fill:#004d40;enable-background:new}.st2,.st4{fill:#fff}.st4{fill:#3e2723}.st7{fill:#fff}.st8{opacity:.2;enable-background:new}.st10,.st8{fill:#1a237e}.st12,.st13,.st16{fill:#4285f4;stroke:#4285f4;stroke-width:20;stroke-miterlimit:10}.st13,.st16{fill:#ea4335;stroke:#ea4335}.st16{fill:#5f6368;stroke:#5f6368}</style><path d="M1056.1 1688c0 17.4-14.3 31.6-31.8 31.6h-673c-17.5 0-31.8-14.2-31.8-31.6v-660.3c0-17.4 14.3-31.6 31.8-31.6h673c17.5 0 31.8 14.2 31.8 31.6V1688z" style="fill:#0c9d58"/><path d="m1056.1 1165.9-252.2-32.5 252.2 67.7zM700 1030.6l-382 170.6 422.2-153.7v-.4c-7.5-15.9-25.6-23.4-40.2-16.5z" class="st1"/><path d="M1024.3 996.2h-673c-17.5 0-31.8 14.2-31.8 31.6v7.1c0-17.4 14.3-31.6 31.8-31.6h673c17.5 0 31.8 14.2 31.8 31.6v-7.1c0-17.4-14.3-31.6-31.8-31.6z" class="st2"/><path d="M482.8 1667.7c-4.5 17 4.5 34.3 20.2 38.4l623.3 167.6c15.6 4.2 32.2-6.3 36.7-23.2l146.8-548c4.5-17-4.5-34.3-20.2-38.4l-623.3-167.6c-15.6-4.2-32.2 6.3-36.7 23.2l-146.8 548z" style="fill:#ea4335"/><path d="m1169.4 1498.2 32.8 199.1-32.8 122.5zM806.8 1141.6l29.4 7.9 18.2 122.9z" class="st4"/><path d="m1289.7 1264.1-623.3-167.6c-15.6-4.2-32.2 6.3-36.7 23.2l-146.8 548c-.2.9-.3 1.8-.5 2.8l145.7-543.9c4.5-17 21.1-27.4 36.7-23.2l623.3 167.6c14.8 4 23.6 19.7 20.6 35.7l1.1-4.2c4.6-16.9-4.4-34.2-20.1-38.4z" class="st2"/><path d="M973.7 1600.2c6 16.5-1.5 34.5-16.7 40.1l-657.8 239.4c-15.2 5.5-32.6-3.4-38.6-19.9l-194-533.2c-6-16.5 1.5-34.5 16.7-40.1l657.8-239.4c15.2-5.5 32.6 3.4 38.6 19.9l194 533.2z" style="fill:#ffc107"/><path d="M69.1 1333.3c-6-16.5 1.5-34.5 16.7-40.1l657.8-239.4c15.1-5.5 32.2 3.3 38.3 19.4l-2.3-6.2c-6-16.5-23.4-25.5-38.6-19.9L83.3 1286.6c-15.2 5.5-22.8 23.6-16.7 40.1l194.1 533.1c.1.2.2.3.2.5l-191.8-527z" class="st2"/><path d="M1169.4 1984.2c0 17.5-14.3 31.9-31.9 31.9H238.1c-17.5 0-31.9-14.3-31.9-31.9v-679.9c0-17.5 14.3-31.9 31.9-31.9h899.5c17.5 0 31.9 14.3 31.9 31.9v679.9z" style="fill:#4285f4"/><path d="M997.7 1541.5H728.5v-70.8h269.1c7.8 0 14.2 6.3 14.2 14.2v42.5c0 7.8-6.3 14.1-14.1 14.1zM997.7 1810.7H728.5v-70.8h269.1c7.8 0 14.2 6.3 14.2 14.2v42.5c0 7.7-6.3 14.1-14.1 14.1zM1040.2 1676.1H728.5v-70.8h311.6c7.8 0 14.2 6.3 14.2 14.2v42.5c0 7.8-6.3 14.1-14.1 14.1z" class="st7"/><path d="M1137.5 2009H238.1c-17.5 0-31.9-14.3-31.9-31.9v7.1c0 17.5 14.3 31.9 31.9 31.9h899.5c17.5 0 31.9-14.3 31.9-31.9v-7.1c-.1 17.5-14.4 31.9-32 31.9z" class="st8"/><path d="M238.1 1279.5h899.5c17.5 0 31.9 14.3 31.9 31.9v-7.1c0-17.5-14.3-31.9-31.9-31.9H238.1c-17.5 0-31.9 14.3-31.9 31.9v7.1c0-17.6 14.3-31.9 31.9-31.9z" class="st2"/><path d="M487.7 1612.4v63.9h91.7c-7.6 38.9-41.8 67.1-91.7 67.1-55.6 0-100.8-47.1-100.8-102.7S432 1538 487.7 1538c25.1 0 47.5 8.6 65.2 25.5l48.5-48.5c-29.5-27.5-67.9-44.3-113.7-44.3-93.9 0-170 76.1-170 170s76.1 170 170 170c98.2 0 162.8-69 162.8-166.1 0-11.1-1-21.9-2.7-32.2H487.7z" class="st7"/><g style="opacity:.2"><path d="M489.5 1676.2v7.1h89.9c.7-2.3 1.2-4.7 1.7-7.1h-91.6z" class="st10"/><path d="M489.5 1810.7c-92.7 0-168-74.2-169.9-166.4 0 1.2-.1 2.4-.1 3.5 0 93.9 76.1 170 170 170 98.2 0 162.8-69 162.8-166.1 0-.8-.1-1.5-.1-2.3-2.2 94.5-66.2 161.3-162.7 161.3zM554.7 1563.5c-17.7-16.9-40.2-25.5-65.2-25.5-55.6 0-100.8 47.1-100.8 102.7 0 1.2.1 2.4.2 3.5 1.9-54.1 46.1-99.2 100.6-99.2 25.1 0 47.5 8.6 65.2 25.5l52-52c-1.2-1.1-2.6-2.2-3.8-3.3l-48.2 48.3z" class="st10"/></g><path d="M1011.8 1534.4v-7.1c0 7.8-6.3 14.2-14.2 14.2H728.5v7.1h269.1c7.9 0 14.2-6.3 14.2-14.2zM997.7 1810.7H728.5v7.1h269.1c7.8 0 14.2-6.3 14.2-14.2v-7.1c0 7.8-6.3 14.2-14.1 14.2zM1040.2 1676.1H728.5v7.1h311.6c7.8 0 14.2-6.3 14.2-14.2v-7.1c0 7.9-6.3 14.2-14.1 14.2z" class="st8"/><radialGradient id="SVGID_1_" cx="345.471" cy="1921.197" r="1212.239" gradientTransform="matrix(1 0 0 -1 0 3000)" gradientUnits="userSpaceOnUse"><stop offset="0" style="stop-color:#fff;stop-opacity:.1"/><stop offset="1" style="stop-color:#fff;stop-opacity:0"/></radialGradient><path d="m1289.7 1264.1-233.6-62.8v-173.5c0-17.4-14.3-31.6-31.8-31.6h-673c-17.5 0-31.8 14.2-31.8 31.6v172.9l-236.1 86c-15.2 5.5-22.8 23.6-16.7 40.1l139.6 383.5v274.1c0 17.5 14.3 31.9 31.9 31.9h899.5c17.5 0 31.9-14.3 31.9-31.9v-157.3l140.5-524.3c4.3-17.2-4.7-34.5-20.4-38.7z" style="fill:url(#SVGID_1_)"/><path d="M1661.2 1451c-93.2 0-170-75-170-170 0-95.1 76.8-170 170-170 43.9 0 85.9 16.5 117 47.5l-32.9 32.9c-21.9-21.9-53-34.7-84.1-32.9-67.7 1.8-122.5 60.3-118.8 128 1.8 64 54.9 117 118.8 118.8 32.9 1.8 64-11 85.9-34.7 14.6-16.5 23.8-36.6 25.6-58.5h-111.5v-45.7h157.2c1.8 9.1 1.8 18.3 1.8 29.3 1.8 40.2-12.8 80.5-40.2 109.7-31 31-73.1 49.3-118.8 45.6z" class="st12"/><path d="M2065.5 1341.3c0 60.3-49.4 107.9-109.7 106-60.3 0-107.9-49.4-106-109.7 0-58.5 49.4-106 107.9-106 58.5 0 107.9 47.5 107.9 106-.1 1.9-.1 3.7-.1 3.7zm-47.6 0c3.7-32.9-21.9-64-54.9-65.8-32.9-3.7-64 21.9-65.8 54.9v11c-3.7 32.9 21.9 64 54.9 65.8 32.9 3.7 64-21.9 65.8-54.9v-11z" class="st13"/><path d="M2309.8 1341.3c0 60.3-49.4 107.9-109.7 106-60.3 0-107.9-49.4-106-109.7 0-58.5 49.4-106 107.9-106 58.5 0 107.9 47.5 107.9 106-.1 1.9-.1 3.7-.1 3.7zm-47.5 0c3.7-32.9-21.9-64-54.9-65.8-32.9-3.7-64 21.9-65.8 54.9v11c-3.7 32.9 21.9 64 54.9 65.8 32.9 3.7 64-21.9 65.8-54.9 1.8-1.8 1.8-5.5 0-11z" style="fill:#fbbc04;stroke:#fbbc04;stroke-width:20;stroke-miterlimit:10"/><path d="M2554.5 1238.9v197.5c0 80.5-47.5 113.4-104.2 113.4-42.1 0-80.5-25.6-96.9-64l42.1-18.3c9.1 21.9 31.1 38.4 54.9 38.4 36.6 0 58.5-21.9 58.5-64v-16.5h-1.8c-14.6 16.5-36.6 25.6-58.5 25.6-60.3 0-109.7-49.4-109.7-109.7s49.4-109.7 109.7-109.7c21.9 0 42.1 9.1 58.5 23.8h1.8v-18.3l45.6 1.8zm-43.9 104.2c3.7-34.7-21.9-64-56.7-67.7h-1.8c-34.7 1.8-62.2 31.1-60.3 65.8-1.8 34.7 25.6 64 60.3 65.8h1.8c34.7-1.8 60.3-29.3 58.5-64l-1.8.1z" class="st12"/><path d="M2638.6 1121.9v321.8h-47.5v-321.8h47.5z" style="fill:#34a853;stroke:#34a853;stroke-width:20;stroke-miterlimit:10"/><path d="m2829.9 1377.9 36.6 25.6c-20.1 31.1-54.9 49.4-91.4 49.4-58.5 0-106-45.7-107.9-104.2v-5.5c0-65.8 45.7-109.7 102.4-109.7 42.1 1.8 80.5 29.3 93.2 69.5l5.5 12.8-146.3 60.3c9.1 20.1 31.1 34.7 53 32.9 23.9 0 44-11 54.9-31.1zm-113.3-38.4 98.7-40.2c-7.3-14.6-23.8-23.8-40.2-23.8-34.8 0-60.3 29.2-58.5 64-1.8-1.8-1.8-1.8 0 0z" class="st13"/><path d="M1538 1829.3v-329.1h51.9l159.5 255.3h2l-2-63.8v-191.5h41.9v329.1h-43.9l-167.5-269.2h-2l2 63.8v203.4H1538v2zM1950.8 1835.3c-31.9 2-61.8-12-83.8-33.9-21.9-23.9-33.9-53.8-31.9-85.8 0-31.9 10-61.8 29.9-85.8 19.9-23.9 49.9-35.9 79.8-35.9 29.9-2 59.8 10 79.8 31.9 21.9 23.9 31.9 55.8 29.9 87.8v10H1879c0 19.9 8 39.9 21.9 53.8 14 12 29.9 19.9 47.9 19.9 25.9 2 51.9-14 61.8-37.9l37.9 16c-8 17.9-19.9 33.9-35.9 43.9-17.9 12-39.9 18-61.8 16zm59.8-145.6c-2-14-8-25.9-17.9-35.9-14-12-29.9-17.9-47.9-17.9-14 0-27.9 6-39.9 14-12 10-19.9 23.9-23.9 39.9h129.6zM2331.7 1829.3h-43.9l-55.8-171.5-55.8 171.5h-41.9l-71.8-225.4h43.9l49.9 169.5 55.8-169.5h43.9l55.8 169.5 49.9-169.5h43.9l-73.9 225.4zM2511.2 1835.3c-21.9 0-43.9-6-61.8-17.9-16-12-27.9-27.9-35.9-45.9l37.9-16c8 25.9 33.9 43.9 61.8 41.9 12 0 21.9-2 31.9-8 8-4 12-14 12-23.9 0-14-10-23.9-29.9-29.9l-45.9-12c-14-4-27.9-10-39.9-19.9-14-10-19.9-25.9-19.9-41.9 0-19.9 10-37.9 25.9-47.9 33.9-21.9 79.8-23.9 115.7-6 16 8 27.9 21.9 33.9 39.9l-35.9 16c-8-19.9-29.9-31.9-51.9-29.9-12 0-21.9 2-31.9 8-8 4-12 12-12 21.9 0 12 10 21.9 29.9 25.9l43.9 10c17.9 4 33.9 12 47.9 25.9 10 12 16 25.9 16 39.9 0 19.9-10 37.9-23.9 49.9-22 13.9-46 21.9-67.9 19.9z" class="st16"/></svg>