<svg xmlns="http://www.w3.org/2000/svg" xml:space="preserve" style="enable-background:new 0 0 3000 3000" viewBox="75.26 1249.55 2849.48 500.9"><path d="M75.26 1730.85v-19.6c67.29-14 74.64-9.1 74.64-135.8v-186.2c0-92.4 2.26-105-74.64-114.8v-19.6h161.16c94.43 0 280.47 14 280.47 232.4 0 83.3-32.8 156.8-90.47 200.2-58.81 44.1-131.19 42.7-197.91 43.4H75.26zm149.29-149.1c-1.7 72.8.57 119.7 70.12 119.7 87.65 0 130.62-98.7 130.62-196 0-151.2-84.25-222.6-200.74-222.6v298.9zM576.77 1596.85l-6.96 25.5c-23.2 86.5-7.35 88 34.8 94.5v14H484.34v-14c20.88-8.5 29.78-9.5 38.67-36l85.46-258-3.87-15c15.08-7 27.46-21.5 36.74-38.5h7.35l72.32 243.5c25.14 82 22.43 88 62.26 104v14H651.79v-14c37.51-8.5 39.83-18 18.56-88.5l-9.28-31.5h-84.3zm75.79-30-35.19-116-33.26 116h68.45zM914.52 1619.85c0 90.5 5.03 87 51.05 97v14H812.43v-14c46.02-10 51.05-6.5 51.05-97v-118c0-90.5-5.03-87-51.05-97v-14h153.14v14c-46.02 10-51.05 6.5-51.05 97v118zM1213.06 1730.85H981.42v-14c46.02-10 51.05-6.5 51.05-97v-118c0-90.5-5.03-87-51.05-97v-14h153.14v14c-53.37 6-51.05 29-51.05 97v184c0 16.5-5.8 22.5 35.19 22.5 66.13 0 81.21-32 112.15-101l10.83 5.5-28.62 118zM1382.44 1619.85c0 68-2.32 91 56.07 97v14h-163.2v-14c51.05-10 56.07-6.5 56.07-97v-23l-43.31-113.5c-17.4-45.5-22.43-67-65.36-78.5v-14h134.19v14c-27.07 9-39.83 5-17.4 66l33.64 91.5 20.88-55c32.87-86.5 25.91-91-8.51-102.5v-14h112.54v14c-32.87 9-48.73 19.5-64.58 57l-44.09 105.5-6.96 19v33.5zM1659.21 1412.35c0-72.1-1.66-122.5-71.93-137.9v-19.6h127.26c69.72 114.8 166 231 245.67 348.6l1.11-1.4-3.32-222.6c-1.11-83.3-17.71-93.8-83-105v-19.6h168.21v19.6c-48.69 5.6-51.46 35-51.46 149.1v311.5l-24.9 15.4c-54.22-84-185.91-252-277.21-376.6-1.66 78.4 1.11 151.9 3.32 228.2 2.21 86.1 14.39 91.7 79.68 109.2v19.6h-181.49v-19.6c40.39-9.8 68.06-7 68.06-101.5v-197.4zM2145.43 1569.35v66c0 51 .4 74.5 52.96 74.5 51.38 0 73.51-36.5 84.58-94h11.86c.79 39-4.74 77.5-14.23 115h-239.5v-14c47.03-10 52.17-6.5 52.17-97v-118c0-90.5-5.14-87-52.17-97v-14h233.97l-7.51 87.5h-12.25c-2.77-65.5-37.94-66.5-81.02-66.5h-28.85v127.5h33.59c33.99 0 51.77-3.5 61.65-49h10.28c-1.98 42.5-3.56 84.5-1.58 127h-11.07c-7.9-49-26.48-48-60.86-48h-32.02zM2440.53 1740.35l-17.2-4-69.22-263.5c-9.23-34.5-13.01-59-47.41-68v-14h131.31v14c-44.05 12.5-37.76 25-22.65 83l36.5 142.5h.84l52.86-178.5c-7.97-29.5-20.14-40-45.31-47v-14h134.67v14c-35.24 11.5-42.79 12-25.59 77.5l39.44 153h.84l14.26-54.5c7.97-29 32.72-117 32.72-142 0-27-19.72-27-36.92-34v-14h113.69v14c-37.34 13.5-41.95 23.5-60.41 85l-75.1 250.5-17.2-4-64.61-249h-.84l-74.67 253zM2904.58 1491.85h-11.86c-7.51-41-17-86.5-57.7-86.5-24.11 0-40.31 22.5-40.31 52 0 81 130.03 75.5 130.03 180 0 72-54.54 102-105.13 102-28.06 0-55.73-9.5-80.23-25.5l-13.04-99 12.25-3c13.04 49 41.89 104.5 88.53 104.5 26.08 0 45.45-21.5 45.45-54 0-84.5-130.03-77.5-130.03-176.5 0-66.5 50.19-103.5 98.41-103.5 23.71 0 47.03 7.5 67.19 22.5l-3.56 87zM611.14 1289.48h-4.95c-3.13-13.53-7.09-28.54-24.09-28.54-10.06 0-16.83 7.42-16.83 17.16 0 26.73 54.28 24.91 54.28 59.4 0 23.76-22.77 33.66-43.89 33.66-11.71 0-23.26-3.13-33.49-8.41l-5.44-32.67 5.11-.99c5.44 16.17 17.49 34.48 36.96 34.48 10.89 0 18.97-7.09 18.97-17.82 0-27.88-54.28-25.57-54.28-58.24 0-21.94 20.95-34.15 41.08-34.15 9.9 0 19.63 2.48 28.05 7.42l-1.48 28.7zM717.89 1364.55c-4.78 1.65-9.9 3.13-15.01 4.29-5.28 1.15-10.39 1.81-15.67 1.81-16.17 0-16.17-11.88-16.17-24.75v-40.26h-12.7v-3.96l29.04-25.08h3.13v19.96h27.39v9.07h-27.4v28.87c0 18.64-.5 25.57 20.95 25.57h6.43v4.48zM792.97 1327.43c0-12.7-.16-24.09-14.35-24.09-8.25 0-7.42 5.77-7.42 12.04v2.8l-13.86.99c-1.65 0-4.13 0-4.13-1.98 0-5.94 23.26-24.09 38.77-24.09 18.48 0 20.46 19.8 20.46 34.65v19.96c0 10.56 1.98 10.39 13.53 14.19v3.63c-6.1 1.32-14.68 5.11-20.79 5.11-6.93 0-9.73-2.97-11.22-9.07-7.09 5.11-13.69 9.07-22.93 9.07-10.56 0-17.82-8.08-17.82-18.31 0-2.97.5-5.77 1.48-8.74l38.28-16.16zm-18.15 14.02c-.5 2.64-1.16 4.95-1.16 7.42 0 6.6 2.97 12.21 10.4 12.21 3.79 0 6.27-1.32 8.91-3.3v-25.9l-18.15 9.57zM889.16 1292.12l2.64 2.48-1.98 18.31.33.33c5.77-8.25 13.86-20.13 25.57-20.13 5.28 0 10.56 4.29 10.56 9.4 0 6.93-7.42 13.36-13.2 16.17-2.64-3.46-6.43-9.07-11.22-9.07-9.57 0-10.06 11.71-10.06 18.64v19.3c0 13.53 0 13.2 18.31 16.83v3.96h-50.32v-3.96c12.54-3.3 12.54-3.79 12.54-16.83v-25.41c0-11.55 0-8.91-9.9-16.17v-2.64l26.73-11.21zM991.96 1252.03l-.66 19.8v75.73c0 13.53 0 13.2 12.54 16.83v3.96h-44.55v-3.96c12.54-3.3 12.54-3.79 12.54-16.83v-67.98c0-11.55 0-8.91-9.9-16.17v-2.64l26.73-11.22 3.3 2.48zm53.45 45.7c-14.35 3.63-27.72 11.05-37.78 21.78l21.12 26.56c6.27 6.93 13.36 14.35 22.27 17.82v4.29c-3.79.66-7.42.99-11.22.99-13.69 0-19.47-3.46-28.38-13.53a164.216 164.216 0 0 1-19.3-27.06c3.96-5.11 17.49-18.31 17.49-24.25 0-3.46-4.29-4.29-8.08-4.95v-3.96l43.89-1.65v3.96zM1164.21 1299.38c-10.23 1.81-12.04 7.92-19.63 24.42l-21.12 46.86-6.76-1.16-23.76-54.12c-6.27-14.52-5.11-12.21-15.01-16v-3.96H1120v3.96c-10.23 2.48-12.37 1.65-5.94 16.17l14.35 31.84c2.81-9.24 13.36-32.17 13.36-40.75 0-6.27-6.44-6.27-11.05-7.26v-3.96h33.49v3.96zM1207.78 1322.15c0-11.55 0-8.91-9.9-16.17v-2.64l26.73-11.22 3.3 2.48-.66 19.8v33.16c0 13.53 0 13.2 12.7 16.83v3.96h-44.71v-3.96c12.54-3.3 12.54-3.79 12.54-16.83v-25.41zm9.07-45.21c-6.6 0-12.04-5.28-12.04-11.71 0-6.44 5.44-11.88 12.04-11.88s12.04 5.44 12.04 11.88c.01 6.43-5.44 11.71-12.04 11.71zM1307.1 1252.03l-.66 19.8v75.73c0 13.53 0 13.2 12.54 16.83v3.96h-44.55v-3.96c12.54-3.3 12.54-3.79 12.54-16.83v-67.98c0-11.55 0-8.91-9.9-16.17v-2.64l26.73-11.22 3.3 2.48zM1386.8 1252.03l-.66 19.8v75.73c0 13.53 0 13.2 12.54 16.83v3.96h-44.55v-3.96c12.54-3.3 12.54-3.79 12.54-16.83v-67.98c0-11.55 0-8.91-9.9-16.17v-2.64l26.73-11.22 3.3 2.48zM1455.11 1321.32c-.5 17.98 9.73 34.98 29.7 34.98 7.92 0 12.87-3.63 17.98-9.4l4.13 2.97c-7.92 11.05-19.47 20.79-33.99 20.79-20.79 0-36.63-16.5-36.63-37.95 0-20.29 17.16-39.6 38.44-39.6 18.48 0 28.54 10.56 29.2 28.21h-48.83zm28.37-6.43c-.83-6.93-3.46-15.84-12.21-15.84-9.24 0-13.53 9.24-15.18 16.66l27.39-.82z"/></svg>