<svg xmlns="http://www.w3.org/2000/svg" width="750" height="269.4" data-name="Layer 1"><circle cx="134.7" cy="134.7" r="134.7" style="fill:#009bff"/><path d="M346.38 343.73a14.72 14.72 0 0 0 11.35-4.33 17.54 17.54 0 0 0 3.66-12.51V273.3h24.34v53.59a35.58 35.58 0 0 1-10.49 27.42 41.28 41.28 0 0 1-28.86 9.63 41.19 41.19 0 0 1-28.87-9.63 35.59 35.59 0 0 1-11.16-27.42V273.3h24.34v53.59a17.42 17.42 0 0 0 4 12.32 14.63 14.63 0 0 0 11.69 4.52ZM434.32 364a58.36 58.36 0 0 1-20.59-3.75 50.65 50.65 0 0 1-17.32-10.68l11.74-14.82a40.18 40.18 0 0 0 11.73 7.41 37.4 37.4 0 0 0 14.44 2.69 15.75 15.75 0 0 0 8.27-1.82 6.07 6.07 0 0 0 3-5.49 6.41 6.41 0 0 0-3.59-5.64 51.25 51.25 0 0 0-12.5-5l-5.5-1.45a38.52 38.52 0 0 1-18.28-9.62 22.6 22.6 0 0 1-6.25-16.46 25.47 25.47 0 0 1 4.62-14.43 28.8 28.8 0 0 1 12.31-9.62 44.66 44.66 0 0 1 18.19-3.46 51.61 51.61 0 0 1 19.24 3.75 55.9 55.9 0 0 1 16.45 9.91l-12.12 15.3a49.07 49.07 0 0 0-11.07-7 29 29 0 0 0-12.6-3 15.22 15.22 0 0 0-8.08 1.73 5.77 5.77 0 0 0-3.08 5.49 6.76 6.76 0 0 0 3 5.39 30.42 30.42 0 0 0 10.39 4.23l6.64 1.83a40.82 40.82 0 0 1 20.3 10.77 23.28 23.28 0 0 1 6 15.88A25.51 25.51 0 0 1 465.2 351a28.88 28.88 0 0 1-12.41 9.62 45.51 45.51 0 0 1-18.47 3.38Zm108.91-1.73-5.67-16.16h-33.29l-5.58 16.64h-24.06l32.62-89h28.29l32.13 88.52Zm-33.29-34.64H531l-10-31.17ZM332.81 476.31v-69.37h-26.46V387.7h77v19.24h-26.2v69.37Zm101.7 1.74a47.43 47.43 0 0 1-23.77-5.87 43.22 43.22 0 0 1-16.26-16.36 46.89 46.89 0 0 1-6.06-23.82 49.78 49.78 0 0 1 3.27-18.47 43.24 43.24 0 0 1 9.62-14.63 44.25 44.25 0 0 1 14.63-9.62 51.77 51.77 0 0 1 36.85 0 44.67 44.67 0 0 1 14.63 9.62 43.1 43.1 0 0 1 9.58 14.59 49.56 49.56 0 0 1 4 18.47 46.86 46.86 0 0 1-6 23.86 43.1 43.1 0 0 1-16.45 16.26 47.29 47.29 0 0 1-24.04 5.97Zm0-20.11a19.32 19.32 0 0 0 11.16-3.27 22.22 22.22 0 0 0 7.51-9.14A31.57 31.57 0 0 0 456 432a32.05 32.05 0 0 0-2.79-13.57 22.68 22.68 0 0 0-7.51-9.62 20.42 20.42 0 0 0-22.42 0 22.66 22.66 0 0 0-7.5 9.62A31.75 31.75 0 0 0 413 432a31.28 31.28 0 0 0 2.79 13.57 22.12 22.12 0 0 0 7.5 9.14 19.22 19.22 0 0 0 11.26 3.17Zm60.13 18.37v-89h35.12a47 47 0 0 1 23.38 5.69A41.48 41.48 0 0 1 569 408.68a49.27 49.27 0 0 1 0 46.18 41.45 41.45 0 0 1-15.88 15.68 47 47 0 0 1-23.38 5.68Zm24-19.24h11.16a18.38 18.38 0 0 0 15.11-6.93 32.73 32.73 0 0 0 0-36.56 18.44 18.44 0 0 0-15.11-6.93h-11.2Zm128 19.24L641 459.67h-33.4l-5.6 16.64h-24l32.61-89h28.29l32.62 89Zm-32.81-34.63H635l-10.46-31.18Zm104.68 2.6v32h-24.8v-32l-31.55-57h27.51l16.46 35.79 16.35-35.31H750Z" style="fill:#404040" transform="translate(0 -240.3)"/></svg>